<?xml version="1.0" encoding="UTF-8" standalone="no"?>
<!-- Generator: Gravit.io -->
<svg xmlns="http://www.w3.org/2000/svg" xmlns:xlink="http://www.w3.org/1999/xlink" style="isolation:isolate" viewBox="0 0 600 600" width="600pt" height="600pt"><defs><clipPath id="_clipPath_dEHuUB7tPrlN19fwaO5bNxfmAuQpPNg5"><rect width="600" height="600"/></clipPath></defs><g clip-path="url(#_clipPath_dEHuUB7tPrlN19fwaO5bNxfmAuQpPNg5)"><rect width="600" height="600" style="fill:rgb(56,178,172)"/><g><path d=" M 450.174 387.589 L 386.132 387.589 C 390.21 383.293 393.217 377.67 394.61 371.194 L 416.043 371.194 C 419.238 371.194 422.023 368.505 422.706 364.751 L 450.01 217.197 C 450.433 214.77 449.952 212.229 448.659 210.294 C 447.358 208.343 445.42 207.212 443.331 207.212 L 156.666 207.212 C 154.591 207.212 152.638 208.343 151.341 210.294 C 150.045 212.229 149.553 214.77 150.004 217.197 L 177.308 364.751 C 178.004 368.505 180.776 371.194 183.97 371.194 L 204.435 371.194 C 204.749 371.194 205.035 371.03 205.349 370.944 C 206.728 377.518 209.745 383.24 213.882 387.589 L 149.826 387.589 C 146.058 387.589 143 391.261 143 395.786 C 143 400.295 146.058 403.984 149.826 403.984 L 450.174 403.984 C 453.928 403.984 457 400.295 457 395.786 C 457 391.261 453.928 387.589 450.174 387.589 Z  M 249.61 387.589 C 253.692 383.293 256.682 377.67 258.074 371.194 L 340.957 371.194 C 341.271 371.194 341.557 371.03 341.858 370.944 C 343.25 377.518 346.254 383.24 350.39 387.589 L 249.61 387.589 Z " fill="rgb(255,255,255)"/><path d=" M 428.849 190.85 C 429.354 188.096 429.696 185.259 429.696 182.308 C 429.696 167.094 422.856 153.519 411.705 146.207 C 409.381 141.173 406.241 136.796 402.391 133.287 C 402.313 110.4 386.76 91.792 367.687 91.792 C 365.367 91.792 363.063 92.087 360.793 92.661 C 357.667 73.495 343.588 59.002 326.731 59.002 C 314.963 59.002 304.041 66.363 297.72 78.004 C 293.938 76.299 289.952 75.43 285.911 75.397 C 279.385 65.167 269.228 59.002 258.47 59.002 C 239.343 59.002 223.766 77.692 223.766 100.678 C 223.766 103.481 224.012 106.252 224.49 108.974 C 210.824 112.236 199.902 125.319 197.172 141.78 C 181.062 145.436 169.171 162.044 169.171 182.308 C 169.171 185.259 169.526 188.079 170.031 190.85 L 428.849 190.85 L 428.849 190.85 Z " fill="rgb(255,255,255)"/></g><g clip-path="url(#_clipPath_JYPzubszaryXxYVxmq0dXdwCtpRSiav4)"><text transform="matrix(1.576,0,0,1.576,34.645,519.504)" style="font-family:'PT Sans';font-weight:700;font-size:72px;font-style:normal;fill:#ffffff;stroke:none;">Brandmine</text></g><defs><clipPath id="_clipPath_JYPzubszaryXxYVxmq0dXdwCtpRSiav4"><rect x="0" y="0" width="369.96" height="86.934" transform="matrix(1.576,0,0,1.576,8.457,403.984)"/></clipPath></defs></g></svg>