<?xml version="1.0" encoding="UTF-8" standalone="no"?>
<!-- Generator: Gravit.io -->
<svg xmlns="http://www.w3.org/2000/svg" xmlns:xlink="http://www.w3.org/1999/xlink" style="isolation:isolate" viewBox="0 0 1500 600" width="1500pt" height="600pt"><defs><clipPath id="_clipPath_P9vTHx0qtasz1OB61VUeyYt2NyKQ13IY"><rect width="1500" height="600"/></clipPath></defs><g clip-path="url(#_clipPath_P9vTHx0qtasz1OB61VUeyYt2NyKQ13IY)"><rect width="1500" height="600" style="fill:rgb(56,178,172)"/><g><path d=" M 471.652 490.894 L 393.333 490.894 C 398.321 485.641 401.998 478.764 403.701 470.844 L 429.913 470.844 C 433.82 470.844 437.226 467.556 438.061 462.965 L 471.452 282.517 C 471.969 279.549 471.381 276.441 469.799 274.076 C 468.209 271.69 465.838 270.306 463.283 270.306 L 112.712 270.306 C 110.175 270.306 107.787 271.69 106.201 274.076 C 104.615 276.441 104.014 279.549 104.565 282.517 L 137.956 462.965 C 138.808 467.556 142.197 470.844 146.104 470.844 L 171.13 470.844 C 171.514 470.844 171.865 470.644 172.249 470.539 C 173.935 478.579 177.625 485.576 182.684 490.894 L 104.348 490.894 C 99.74 490.894 96 495.385 96 500.919 C 96 506.433 99.74 510.944 104.348 510.944 L 471.652 510.944 C 476.243 510.944 480 506.433 480 500.919 C 480 495.385 476.243 490.894 471.652 490.894 Z  M 226.376 490.894 C 231.368 485.641 235.025 478.764 236.728 470.844 L 338.087 470.844 C 338.471 470.844 338.822 470.644 339.189 470.539 C 340.892 478.579 344.565 485.576 349.624 490.894 L 226.376 490.894 Z " fill="rgb(255,255,255)"/><path d=" M 445.574 250.297 C 446.191 246.928 446.609 243.46 446.609 239.851 C 446.609 221.244 438.244 204.643 424.608 195.701 C 421.766 189.546 417.926 184.192 413.217 179.902 C 413.121 151.912 394.101 129.156 370.777 129.156 C 367.939 129.156 365.121 129.516 362.346 130.218 C 358.522 106.78 341.305 89.056 320.69 89.056 C 306.298 89.056 292.942 98.058 285.212 112.294 C 280.587 110.208 275.712 109.146 270.77 109.106 C 262.79 96.595 250.368 89.056 237.212 89.056 C 213.821 89.056 194.771 111.913 194.771 140.023 C 194.771 143.451 195.072 146.839 195.656 150.168 C 178.944 154.158 165.587 170.157 162.248 190.287 C 142.547 194.759 128.006 215.069 128.006 239.851 C 128.006 243.46 128.44 246.908 129.057 250.297 L 445.574 250.297 L 445.574 250.297 Z " fill="rgb(255,255,255)"/></g><g clip-path="url(#_clipPath_HosvxcnVGQimnkvGGTeNiKLctDXd7Oza)"><text transform="matrix(1.576,0,0,1.576,553.251,387.604)" style="font-family:'PT Sans';font-weight:700;font-size:120px;font-style:normal;fill:#ffffff;stroke:none;">Brandmine</text></g><defs><clipPath id="_clipPath_HosvxcnVGQimnkvGGTeNiKLctDXd7Oza"><rect x="0" y="0" width="566.651" height="133.153" transform="matrix(1.576,0,0,1.576,547.915,195.071)"/></clipPath></defs></g></svg>