<!-- File: innovation-leader.svg -->
<svg xmlns="http://www.w3.org/2000/svg" viewBox="0 0 64 64" width="64" height="64" fill="none" stroke="black" stroke-width="2" stroke-linecap="round" stroke-linejoin="round">
  <!-- Lightbulb -->
  <path d="M32 12a14 14 0 0 1 14 14c0 6-4 10-6 12v4H26v-4c-2-2-6-6-6-12a14 14 0 0 1 14-14z"/>
  <path d="M28 48h8"/>
  <path d="M28 52h8"/>
  
  <!-- Rays -->
  <path d="M32 2v4"/>
  <path d="M32 58v4"/>
  <path d="M12 32h-4"/>
  <path d="M56 32h4"/>
  <path d="M18 18l-3-3"/>
  <path d="M49 49l3 3"/>
  <path d="M18 46l-3 3"/>
  <path d="M49 15l3-3"/>
</svg>