<!-- File: artisan-porcelain-ceramics.svg -->
<svg xmlns="http://www.w3.org/2000/svg" viewBox="0 0 64 64" fill="none" stroke="black" stroke-width="2" stroke-linecap="round" stroke-linejoin="round">
  <!-- Vase body -->
  <path d="M24 12h16c0 6-2 10-4 12 2 2 4 6 4 12s-2 12-4 16H28c-2-4-4-10-4-16s2-10 4-12c-2-2-4-6-4-12z"/>
  <path d="M24 12h16"/>
  <path d="M24 52h16"/>

  <!-- Floral motif -->
  <path d="M32 34c-2 0-4-2-4-4s2-4 4-4 4 2 4 4-2 4-4 4z"/>
  <path d="M28 30c-2-1-4-1-6 0 1 2 2 3 4 3"/>
  <path d="M36 30c2-1 4-1 6 0-1 2-2 3-4 3"/>
</svg>