<!-- File: hotels-resorts.svg -->
<svg xmlns="http://www.w3.org/2000/svg" viewBox="0 0 64 64" fill="none" stroke="black" stroke-width="2" stroke-linecap="round" stroke-linejoin="round">
  <!-- Hotel building -->
  <rect x="16" y="20" width="20" height="28"/>
  <path d="M20 24h4m8 0h4M20 30h4m8 0h4M20 36h4m8 0h4"/>
  <path d="M24 44h8v4h-8z"/>

  <!-- Palm tree -->
  <path d="M36 20c2-2 6-2 8 0-2 0-4 2-4 4"/>
  <path d="M40 24c2-2 6-2 8 0-2 0-4 2-4 4"/>
  <path d="M42 44c-1-10 1-16 4-20"/>
  <path d="M42 44l-4 4"/>

  <!-- Ground -->
  <path d="M12 52h40"/>
</svg>