<!-- File: rapid-growth.svg -->
<svg xmlns="http://www.w3.org/2000/svg" viewBox="0 0 64 64" width="64" height="64" fill="none" stroke="black" stroke-width="2" stroke-linecap="round" stroke-linejoin="round">
  <!-- Rocket body -->
  <path d="M32 10c-4 6-4 20 0 26 4-6 4-20 0-26z"/>
  <circle cx="32" cy="22" r="3"/>
  <path d="M28 36c-4 2-8 6-8 12h24c0-6-4-10-8-12"/>
  <path d="M32 36v10"/>
  <path d="M28 50c2 2 4 2 6 0-2-2-4-2-6 0z"/>

  <!-- Boost line -->
  <path d="M12 52l40-40"/>
  <path d="M48 12l4 10-10-4"/>
</svg>