<!-- File: russia.svg -->
<svg xmlns="http://www.w3.org/2000/svg" viewBox="0 0 64 64" width="64" height="64" fill="none" stroke="black" stroke-width="2" stroke-linecap="round" stroke-linejoin="round">
  <!-- Left dome -->
  <path d="M18 26c0-4 2-6 4-8 2 2 4 4 4 8v6h-8v-6z"/>
  <rect x="18" y="32" width="8" height="10"/>

  <!-- Center dome -->
  <path d="M28 22c0-5 2-7 4-10 2 3 4 5 4 10v8h-8v-8z"/>
  <rect x="28" y="30" width="8" height="12"/>

  <!-- Right dome -->
  <path d="M38 26c0-4 2-6 4-8 2 2 4 4 4 8v6h-8v-6z"/>
  <rect x="38" y="32" width="8" height="10"/>

  <!-- Base -->
  <path d="M16 42h32"/>
</svg>