<!-- File: south-africa.svg -->
<svg xmlns="http://www.w3.org/2000/svg" viewBox="0 0 64 64" width="64" height="64" fill="none" stroke="black" stroke-width="2" stroke-linecap="round" stroke-linejoin="round">
  <!-- Trunk -->
  <path d="M30 24v24h4V24"/>

  <!-- Branches -->
  <path d="M32 24c-4-4-10-6-14-4 2 4 6 4 10 6"/>
  <path d="M32 24c4-4 10-6 14-4-2 4-6 4-10 6"/>
  <path d="M26 20c-2-2-6-2-8 0 1 3 4 3 6 4"/>
  <path d="M38 20c2-2 6-2 8 0-1 3-4 3-6 4"/>

  <!-- Ground line -->
  <path d="M20 48h24"/>
</svg>