<svg xmlns="http://www.w3.org/2000/svg" width="512" height="512" viewBox="0 0 512 512">
  <!-- Background -->
  <rect width="512" height="512" fill="#f9f9f8"/>
  
  <!-- Captain silhouette with hat -->
  <g transform="translate(256,256)" fill="#808f67">
    <!-- Cap -->
    <path d="M-90,-110 L90,-110 L110,-90 L110,-50 L100,-40 C100,-40 120,-30 120,-20 C120,-10 100,0 100,0 L-100,0 C-100,0 -120,-10 -120,-20 C-120,-30 -100,-40 -100,-40 L-110,-50 L-110,-90 Z" />
    
    <!-- Cap visor -->
    <path d="M-110,-90 L110,-90 L130,-70 L-130,-70 Z" fill="#6a7955"/>
    
    <!-- Face -->
    <ellipse cx="0" cy="60" rx="80" ry="100" />
    
    <!-- Neck -->
    <rect x="-30" y="150" width="60" height="40" />
  </g>
</svg>