<!-- File: india.svg -->
<svg xmlns="http://www.w3.org/2000/svg" viewBox="0 0 64 64" fill="none" stroke="black" stroke-width="2" stroke-linecap="round" stroke-linejoin="round">
  <!-- Center petal -->
  <path d="M32 18c2 4 2 10 0 14-2-4-2-10 0-14z"/>

  <!-- Left petals -->
  <path d="M24 22c-3 3-4 8-2 12 2-2 4-4 6-4"/>
  <path d="M20 28c-3 1-4 4-4 6 2-1 4-2 6-2"/>

  <!-- Right petals -->
  <path d="M40 22c3 3 4 8 2 12-2-2-4-4-6-4"/>
  <path d="M44 28c3 1 4 4 4 6-2-1-4-2-6-2"/>

  <!-- Base -->
  <path d="M20 36c4 4 20 4 24 0"/>
</svg>